#!OML:ASF F:\VICON\USERDATA\INSTALL\Justin_Nancy\Justin_Nancy.ASF
:FULLY-SPECIFIED
:DEGREES
218
root 0.916936 16.3227 -17.2699 14.9747 -0.841015 -0.167818
lowerback 25.6782 -0.396315 2.25856
upperback 2.93383 0.474651 2.99856
thorax -11.0619 0.195483 1.91063
lowerneck -21.1195 -4.03514 -9.21105
upperneck 12.1768 -3.70419 5.36622
head 7.45416 -1.69921 2.80229
rclavicle 3.57812e-015 -2.22639e-014
rhumerus -17.9483 4.11085 -81.3643
rradius 69.9052
rwrist -4.43145
rhand -14.1774 15.5219
rfingers 7.12502
rthumb 11.9581 -14.1165
lclavicle 3.57812e-015 -2.22639e-014
lhumerus -17.3247 -2.17775 85.7851
lradius 62.2417
lwrist 6.21421
lhand -21.7158 24.8594
lfingers 7.12502
lthumb 4.68323 54.7876
rfemur -47.4223 -2.12594 18.9471
rtibia 57.8723
rfoot -19.7826 -5.67706
rtoes 3.65251
lfemur -48.4516 0.568986 -18.2147
ltibia 57.3164
lfoot -21.0136 3.85258
ltoes -1.33027
219
root 0.922158 16.2813 -17.3214 15.7843 -0.673029 -0.13239
lowerback 26.1599 -0.428157 2.24193
upperback 3.06266 0.45048 3.04501
thorax -11.1698 0.186132 1.98572
lowerneck -21.2125 -4.00553 -9.06465
upperneck 11.4007 -3.66833 5.31085
head 7.20534 -1.67187 2.76074
rclavicle 3.97569e-016 9.54166e-015
rhumerus -17.248 4.12719 -81.111
rradius 70.0609
rwrist -4.5847
rhand -14.3338 15.6059
rfingers 7.12502
rthumb 11.8073 -14.0412
lclavicle 3.97569e-016 9.54166e-015
lhumerus -16.6767 -2.19097 85.6331
lradius 62.2109
lwrist 6.3341
lhand -21.99 26.2617
lfingers 7.12502
lthumb 4.41843 56.1956
rfemur -48.9002 -2.21915 18.9327
rtibia 58.515
rfoot -19.7801 -5.74502
rtoes 3.59976
lfemur -49.9265 0.403273 -18.2226
ltibia 57.916
lfoot -20.9313 3.8636
ltoes -1.45672
220
root 0.928375 16.2447 -17.3672 16.5057 -0.656378 -0.0703027
lowerback 26.8304 -0.396903 2.11955
upperback 3.15211 0.489222 3.11108
thorax -11.4232 0.210915 2.12638
lowerneck -21.2948 -3.95343 -8.93574
upperneck 10.801 -3.58312 5.13215
head 7.00825 -1.63545 2.68841
rclavicle -9.54166e-015 -1.27222e-014
rhumerus -16.8072 4.17368 -80.7382
rradius 70.38
rwrist -4.8443
rhand -14.4173 15.5831
rfingers 7.12502
rthumb 11.7267 -14.0687
lclavicle -9.54166e-015 -1.27222e-014
lhumerus -16.2792 -2.11648 85.5286
lradius 62.4468
lwrist 6.35106
lhand -21.1277 26.0142
lfingers 7.12502
lthumb 5.25103 55.9292
rfemur -50.2281 -2.24971 18.86
rtibia 59.1005
rfoot -19.7191 -5.79397
rtoes 3.73958
lfemur -51.2968 0.386333 -18.3325
ltibia 58.4901
lfoot -20.853 3.89522
ltoes -1.5161
221
root 0.93449 16.2132 -17.4042 17.1519 -0.636979 -0.0799009
lowerback 27.4893 -0.37634 2.12178
upperback 3.31529 0.545703 3.17724
thorax -11.5829 0.23794 2.18705
lowerneck -21.5015 -3.88618 -8.83137
upperneck 10.1826 -3.46809 5.00187
head 6.82501 -1.57929 2.63947
rclavicle 1.51076e-014 1.03368e-014
rhumerus -16.3103 4.1703 -80.3473
rradius 70.6969
rwrist -5.22855
rhand -14.311 15.2952
rfingers 7.12502
rthumb 11.8293 -14.3507
lclavicle 1.51076e-014 1.03368e-014
lhumerus -15.6099 -1.956 85.4547
lradius 62.4633
lwrist 6.10027
lhand -20.2506 25.4585
lfingers 7.12502
lthumb 6.09789 55.3507
rfemur -51.3924 -2.28716 18.8809
rtibia 59.6321
rfoot -19.716 -5.80604
rtoes 3.56692
lfemur -52.518 0.406582 -18.3642
ltibia 59.0517
lfoot -20.861 3.89787
ltoes -1.53011
222
root 0.935554 16.1677 -17.4519 17.9799 -0.4024 -0.281157
lowerback 28.0405 -0.412997 2.34455
upperback 3.48268 0.598247 3.30285
thorax -11.6776 0.25462 2.18758
lowerneck -21.8049 -3.85444 -8.76557
upperneck 9.44019 -3.40889 5.06064
head 6.62537 -1.53188 2.65189
rclavicle -2.06736e-014 -2.14687e-014
rhumerus -15.8141 3.93919 -80.0598
rradius 71.0464
rwrist -5.46647
rhand -14.4628 15.2418
rfingers 7.12502
rthumb 11.6829 -14.4124
lclavicle -2.06736e-014 -2.14687e-014
lhumerus -14.8198 -1.87058 85.3741
lradius 62.27
lwrist 6.07092
lhand -20.6675 21.7745
lfingers 7.12502
lthumb 5.69537 51.678
rfemur -52.8284 -2.2786 19.1511
rtibia 60.1748
rfoot -19.5957 -5.94927
rtoes 3.72876
lfemur -54.0489 0.35196 -18.0847
ltibia 59.6042
lfoot -20.7072 3.73007
ltoes -1.37337
223
root 0.934167 16.1198 -17.4964 18.8522 -0.252178 -0.421776
lowerback 28.4805 -0.347847 2.38482
upperback 3.69787 0.72583 3.46824
thorax -11.6613 0.314765 2.30823
lowerneck -22.3173 -3.93797 -8.8197
upperneck 8.89973 -3.4556 5.12565
head 6.534 -1.53908 2.6717
rclavicle 1.59028e-015 -2.38542e-014
rhumerus -15.3743 3.56405 -79.6783
rradius 71.377
rwrist -5.62427
rhand -14.6206 15.4833
rfingers 7.12502
rthumb 11.5307 -14.1795
lclavicle 1.59028e-015 -2.38542e-014
lhumerus -14.1561 -1.82751 85.412
lradius 62.209
lwrist 6.31324
lhand -21.0613 18.1488
lfingers 7.12502
lthumb 5.31517 48.0622
rfemur -54.3255 -2.25292 19.3505
rtibia 60.7247
rfoot -19.52 -6.01578
rtoes 4.03696
lfemur -55.6016 0.375648 -17.8979
ltibia 60.1213
lfoot -20.5016 3.59062
ltoes -1.74868
224
root 0.940265 16.0939 -17.5137 19.5547 -0.325257 -0.0236502
lowerback 28.7474 -0.232908 2.03834
upperback 4.02707 0.754108 3.38733
thorax -11.4207 0.339895 2.40206
lowerneck -22.7251 -4.03675 -8.75423
upperneck 8.31259 -3.55692 5.12691
head 6.41082 -1.57516 2.64548
rclavicle 1.59028e-015 -2.14687e-014
rhumerus -14.9457 3.09361 -79.3634
rradius 71.6954
rwrist -5.83124
rhand -14.6644 15.2641
rfingers 7.12502
rthumb 11.4884 -14.4011
lclavicle 1.59028e-015 -2.14687e-014
lhumerus -13.4969 -1.77292 85.3443
lradius 62.2799
lwrist 6.48761
lhand -20.4404 18.8982
lfingers 7.12502
lthumb 5.91461 48.7956
rfemur -55.4953 -2.51011 18.942
rtibia 61.2836
rfoot -19.5626 -5.82475
rtoes 4.3662
lfemur -56.6552 0.367324 -18.4321
ltibia 60.5642
lfoot -20.6138 3.62876
ltoes -2.28849
225
root 0.948562 16.0672 -17.5332 20.3405 -0.385752 0.28082
lowerback 29.21 -0.196251 1.82249
upperback 4.11729 0.737463 3.29065
thorax -11.5534 0.338781 2.42763
lowerneck -22.6809 -4.05036 -8.73065
upperneck 7.67468 -3.58412 5.2124
head 6.1993 -1.57536 2.66626
rclavicle -6.36111e-015 2.38542e-014
rhumerus -14.9805 2.71543 -79.1834
rradius 72.0589
rwrist -6.08924
rhand -14.7524 15.0529
rfingers 7.12502
rthumb 11.4036 -14.617
lclavicle -6.36111e-015 2.38542e-014
lhumerus -13.2038 -1.52572 85.2279
lradius 62.1448
lwrist 6.75542
lhand -20.2782 20.94
lfingers 7.12502
lthumb 6.07126 50.833
rfemur -56.7487 -2.68848 18.6254
rtibia 61.8077
rfoot -19.6129 -5.6784
rtoes 4.81157
lfemur -57.8301 0.370625 -18.8459
ltibia 61.0142
lfoot -20.7193 3.61154
ltoes -2.46219
226
root 0.943962 16.0084 -17.5875 21.2784 -0.663202 0.195111
lowerback 30.3204 -0.0535681 1.65866
upperback 3.5505 0.914693 3.32822
thorax -11.9883 0.396083 2.31946
lowerneck -22.496 -3.99528 -8.71419
upperneck 7.11879 -3.54285 5.38581
head 5.99147 -1.53809 2.72655
rclavicle 3.97569e-015 -3.97569e-014
rhumerus -15.3384 2.36665 -79.1161
rradius 72.4137
rwrist -6.45557
rhand -15.1457 15.178
rfingers 7.12502
rthumb 11.0242 -14.5125
lclavicle 3.97569e-015 -3.97569e-014
lhumerus -13.3402 -1.30464 84.9898
lradius 62.0362
lwrist 7.23441
lhand -20.9848 23.2228
lfingers 7.12502
lthumb 5.38907 53.1343
rfemur -58.4987 -2.21361 18.6352
rtibia 62.3995
rfoot -19.3988 -5.90774
rtoes 4.76345
lfemur -59.5621 0.709262 -18.7935
ltibia 61.6397
lfoot -20.5384 3.51514
ltoes -2.49297
227
root 0.95343 15.9746 -17.6086 22.4043 -0.819263 -0.104051
lowerback 30.494 0.0205876 1.92246
upperback 3.5464 1.09456 3.29105
thorax -12.0654 0.463502 2.06927
lowerneck -22.4989 -3.94235 -8.55578
upperneck 6.59848 -3.50836 5.41077
head 5.81908 -1.51076 2.71351
rclavicle -6.36111e-015 -8.74653e-015
rhumerus -15.5468 1.89444 -78.9694
rradius 72.6458
rwrist -6.92315
rhand -15.6349 15.3005
rfingers 7.12502
rthumb 10.5524 -14.4146
lclavicle -6.36111e-015 -8.74653e-015
lhumerus -13.3092 -1.19973 84.7855
lradius 62.0325
lwrist 7.30645
lhand -20.9747 25.4126
lfingers 7.12502
lthumb 5.39873 55.3238
rfemur -60.1284 -2.09216 18.9241
rtibia 62.8345
rfoot -19.3905 -5.83819
rtoes 4.51209
lfemur -61.2034 0.931852 -18.5645
ltibia 62.1259
lfoot -20.4535 3.54123
ltoes -2.3162
